<svg width="1600" height="980" viewBox="0 0 1600 980" fill="none" xmlns="http://www.w3.org/2000/svg">
  <defs>
    <linearGradient id="bg2" x1="90" y1="40" x2="1520" y2="960" gradientUnits="userSpaceOnUse">
      <stop stop-color="#07111F"/>
      <stop offset="1" stop-color="#030712"/>
    </linearGradient>
    <linearGradient id="panel2" x1="100" y1="80" x2="1500" y2="900" gradientUnits="userSpaceOnUse">
      <stop stop-color="#0B1326"/>
      <stop offset="1" stop-color="#09090B"/>
    </linearGradient>
    <filter id="shadow2" x="28" y="34" width="1544" height="912" filterUnits="userSpaceOnUse" color-interpolation-filters="sRGB">
      <feDropShadow dx="0" dy="28" stdDeviation="28" flood-color="#020617" flood-opacity="0.42"/>
    </filter>
  </defs>

  <rect width="1600" height="980" fill="url(#bg2)"/>
  <g opacity="0.08">
    <path d="M0 170H1600" stroke="#94A3B8"/>
    <path d="M0 370H1600" stroke="#94A3B8"/>
    <path d="M0 570H1600" stroke="#94A3B8"/>
    <path d="M0 770H1600" stroke="#94A3B8"/>
    <path d="M220 0V980" stroke="#94A3B8"/>
    <path d="M480 0V980" stroke="#94A3B8"/>
    <path d="M740 0V980" stroke="#94A3B8"/>
    <path d="M1000 0V980" stroke="#94A3B8"/>
    <path d="M1260 0V980" stroke="#94A3B8"/>
  </g>

  <g filter="url(#shadow2)">
    <rect x="70" y="58" width="1460" height="864" rx="34" fill="url(#panel2)" stroke="#1F2937"/>
  </g>

  <rect x="70" y="58" width="1460" height="76" rx="34" fill="#09090B"/>
  <rect x="70" y="100" width="1460" height="34" fill="#09090B"/>
  <rect x="110" y="86" width="22" height="22" rx="6" fill="#111827" stroke="#27272A"/>
  <rect x="117" y="93" width="8" height="8" rx="2" fill="#F8FAFC"/>
  <text x="146" y="102" fill="#F8FAFC" font-family="JetBrains Mono, monospace" font-size="22" font-weight="700">Relay</text>
  <rect x="1260" y="82" width="112" height="30" rx="15" fill="#082F49" stroke="#38BDF8"/>
  <text x="1290" y="101" fill="#E0F2FE" font-family="JetBrains Mono, monospace" font-size="12" font-weight="700">Replay Mode</text>

  <text x="118" y="192" fill="#93C5FD" font-family="JetBrains Mono, monospace" font-size="12" font-weight="700" letter-spacing="1.2">TIMELINE REPLAY</text>
  <text x="118" y="236" fill="#F8FAFC" font-family="JetBrains Mono, monospace" font-size="36" font-weight="800">Scrub Every Agent Step</text>
  <text x="118" y="272" fill="#94A3B8" font-family="JetBrains Mono, monospace" font-size="15">
    Move across a session history, recover the latest screenshot for each step, and replay the exact execution trail.
  </text>

  <rect x="118" y="312" width="322" height="548" rx="24" fill="#0B1020" stroke="#1F2937"/>
  <text x="146" y="350" fill="#64748B" font-family="JetBrains Mono, monospace" font-size="12" font-weight="700" letter-spacing="1.1">SESSION DATABASE</text>
  <rect x="146" y="374" width="266" height="48" rx="16" fill="#111827" stroke="#334155"/>
  <text x="166" y="404" fill="#E5E7EB" font-family="JetBrains Mono, monospace" font-size="13">Support Triage Agent [running]</text>

  <rect x="146" y="446" width="266" height="120" rx="18" fill="#0F172A" stroke="#1E293B"/>
  <text x="168" y="478" fill="#64748B" font-family="JetBrains Mono, monospace" font-size="11" font-weight="700">TASK</text>
  <text x="168" y="510" fill="#F8FAFC" font-family="JetBrains Mono, monospace" font-size="13">Verify refund on ticket #4821 and summarize next steps.</text>
  <text x="168" y="548" fill="#94A3B8" font-family="JetBrains Mono, monospace" font-size="12">started 14:31  current step 21 of 26</text>

  <rect x="146" y="590" width="266" height="242" rx="18" fill="#0F172A" stroke="#1E293B"/>
  <text x="168" y="622" fill="#64748B" font-family="JetBrains Mono, monospace" font-size="11" font-weight="700">ACTION INDEX</text>

  <rect x="168" y="646" width="222" height="38" rx="14" fill="#082F49" stroke="#3B82F6"/>
  <text x="186" y="670" fill="#DBEAFE" font-family="JetBrains Mono, monospace" font-size="12" font-weight="700">#18 navigate  opened ticket details</text>
  <rect x="168" y="694" width="222" height="38" rx="14" fill="#111827" stroke="#334155"/>
  <text x="186" y="718" fill="#E5E7EB" font-family="JetBrains Mono, monospace" font-size="12">#19 read  inspected payment history</text>
  <rect x="168" y="742" width="222" height="38" rx="14" fill="#111827" stroke="#334155"/>
  <text x="186" y="766" fill="#E5E7EB" font-family="JetBrains Mono, monospace" font-size="12">#20 decide  draft refund summary</text>
  <rect x="168" y="790" width="222" height="38" rx="14" fill="#052E16" fill-opacity="0.25" stroke="#10B981"/>
  <text x="186" y="814" fill="#A7F3D0" font-family="JetBrains Mono, monospace" font-size="12">#21 redirect  refund only</text>

  <rect x="470" y="312" width="942" height="548" rx="24" fill="#0B1020" stroke="#1F2937"/>
  <text x="498" y="350" fill="#64748B" font-family="JetBrains Mono, monospace" font-size="12" font-weight="700" letter-spacing="1.1">REPLAY CONTROLS</text>

  <rect x="498" y="374" width="94" height="36" rx="18" fill="#111827" stroke="#334155"/>
  <text x="530" y="397" fill="#E5E7EB" font-family="JetBrains Mono, monospace" font-size="12" font-weight="700">Reset</text>
  <rect x="606" y="374" width="132" height="36" rx="18" fill="#1D4ED8" fill-opacity="0.20" stroke="#3B82F6"/>
  <text x="636" y="397" fill="#DBEAFE" font-family="JetBrains Mono, monospace" font-size="12" font-weight="700">Pause Replay</text>
  <rect x="752" y="374" width="148" height="36" rx="18" fill="#111827" stroke="#334155"/>
  <text x="776" y="397" fill="#E5E7EB" font-family="JetBrains Mono, monospace" font-size="12">Step 21 of 26</text>

  <rect x="498" y="432" width="886" height="18" rx="9" fill="#111827" stroke="#1F2937"/>
  <rect x="498" y="432" width="662" height="18" rx="9" fill="#1D4ED8" fill-opacity="0.65"/>
  <circle cx="1160" cy="441" r="17" fill="#0F172A" stroke="#3B82F6" stroke-width="4"/>

  <rect x="498" y="482" width="540" height="334" rx="22" fill="#0F172A" stroke="#334155"/>
  <rect x="520" y="504" width="496" height="36" rx="18" fill="#111827" stroke="#334155"/>
  <text x="540" y="527" fill="#BAE6FD" font-family="JetBrains Mono, monospace" font-size="12" font-weight="700">screenshot at action #21</text>
  <rect x="530" y="562" width="220" height="96" rx="18" fill="#111827" stroke="#334155"/>
  <rect x="764" y="562" width="230" height="96" rx="18" fill="#111827" stroke="#334155"/>
  <text x="560" y="606" fill="#E5E7EB" font-family="JetBrains Mono, monospace" font-size="12">gateway status</text>
  <text x="580" y="632" fill="#34D399" font-family="JetBrains Mono, monospace" font-size="22" font-weight="800">verified</text>
  <text x="796" y="606" fill="#E5E7EB" font-family="JetBrains Mono, monospace" font-size="12">refund amount</text>
  <text x="820" y="632" fill="#38BDF8" font-family="JetBrains Mono, monospace" font-size="22" font-weight="800">$128.00</text>
  <rect x="530" y="684" width="464" height="108" rx="18" fill="#0B1020" stroke="#1E293B"/>
  <text x="552" y="718" fill="#E2E8F0" font-family="JetBrains Mono, monospace" font-size="13">
    Replay walks backward to the most recent screenshot, so the operator can
  </text>
  <text x="552" y="744" fill="#E2E8F0" font-family="JetBrains Mono, monospace" font-size="13">
    understand the UI state even when an intermediate action did not capture one.
  </text>

  <rect x="1062" y="482" width="322" height="334" rx="22" fill="#0F172A" stroke="#1E293B"/>
  <text x="1088" y="520" fill="#64748B" font-family="JetBrains Mono, monospace" font-size="11" font-weight="700">ACTION DETAILS</text>
  <rect x="1088" y="544" width="270" height="44" rx="14" fill="#052E16" fill-opacity="0.28" stroke="#10B981"/>
  <text x="1110" y="571" fill="#A7F3D0" font-family="JetBrains Mono, monospace" font-size="12" font-weight="700">redirect  refund only</text>
  <text x="1088" y="622" fill="#F8FAFC" font-family="JetBrains Mono, monospace" font-size="14" font-weight="700">Operator changed the objective</text>
  <text x="1088" y="650" fill="#94A3B8" font-family="JetBrains Mono, monospace" font-size="12">
    Relay paused replay at the point where the human intervened and the
  </text>
  <text x="1088" y="674" fill="#94A3B8" font-family="JetBrains Mono, monospace" font-size="12">
    session was redirected without losing screenshots or action order.
  </text>

  <rect x="1088" y="708" width="270" height="80" rx="16" fill="#0B1020" stroke="#1E293B"/>
  <text x="1110" y="740" fill="#93C5FD" font-family="JetBrains Mono, monospace" font-size="12" font-weight="700">Next replay point</text>
  <text x="1110" y="766" fill="#E2E8F0" font-family="JetBrains Mono, monospace" font-size="12">#22  confirm refund summary draft</text>
</svg>
