<svg width="1600" height="980" viewBox="0 0 1600 980" fill="none" xmlns="http://www.w3.org/2000/svg">
  <defs>
    <linearGradient id="bg" x1="120" y1="40" x2="1480" y2="940" gradientUnits="userSpaceOnUse">
      <stop stop-color="#0B1220"/>
      <stop offset="1" stop-color="#050816"/>
    </linearGradient>
    <linearGradient id="panel" x1="120" y1="120" x2="1380" y2="860" gradientUnits="userSpaceOnUse">
      <stop stop-color="#0F172A"/>
      <stop offset="1" stop-color="#09090B"/>
    </linearGradient>
    <linearGradient id="shot" x1="1110" y1="270" x2="1440" y2="570" gradientUnits="userSpaceOnUse">
      <stop stop-color="#111827"/>
      <stop offset="1" stop-color="#0F172A"/>
    </linearGradient>
    <filter id="shadow" x="30" y="30" width="1540" height="920" filterUnits="userSpaceOnUse" color-interpolation-filters="sRGB">
      <feDropShadow dx="0" dy="30" stdDeviation="32" flood-color="#020617" flood-opacity="0.45"/>
    </filter>
  </defs>

  <rect width="1600" height="980" fill="url(#bg)"/>
  <g opacity="0.09">
    <path d="M0 120H1600" stroke="#94A3B8"/>
    <path d="M0 280H1600" stroke="#94A3B8"/>
    <path d="M0 440H1600" stroke="#94A3B8"/>
    <path d="M0 600H1600" stroke="#94A3B8"/>
    <path d="M0 760H1600" stroke="#94A3B8"/>
    <path d="M200 0V980" stroke="#94A3B8"/>
    <path d="M420 0V980" stroke="#94A3B8"/>
    <path d="M640 0V980" stroke="#94A3B8"/>
    <path d="M860 0V980" stroke="#94A3B8"/>
    <path d="M1080 0V980" stroke="#94A3B8"/>
    <path d="M1300 0V980" stroke="#94A3B8"/>
  </g>

  <g filter="url(#shadow)">
    <rect x="74" y="60" width="1452" height="860" rx="34" fill="url(#panel)" stroke="#1F2937"/>
  </g>

  <rect x="74" y="60" width="1452" height="76" rx="34" fill="#09090B"/>
  <rect x="74" y="102" width="1452" height="34" fill="#09090B"/>

  <circle cx="116" cy="99" r="6" fill="#10B981"/>
  <rect x="136" y="88" width="22" height="22" rx="6" fill="#111827" stroke="#27272A"/>
  <rect x="143" y="95" width="8" height="8" rx="2" fill="#F8FAFC"/>
  <text x="172" y="103" fill="#F8FAFC" font-family="JetBrains Mono, monospace" font-size="22" font-weight="700">Relay</text>

  <rect x="302" y="82" width="82" height="30" rx="15" fill="#111827" stroke="#334155"/>
  <text x="327" y="101" fill="#E5E7EB" font-family="JetBrains Mono, monospace" font-size="12" font-weight="600">Home</text>
  <rect x="396" y="82" width="82" height="30" rx="15" fill="#1D4ED8" fill-opacity="0.20" stroke="#3B82F6"/>
  <text x="421" y="101" fill="#DBEAFE" font-family="JetBrains Mono, monospace" font-size="12" font-weight="700">Live</text>
  <rect x="490" y="82" width="108" height="30" rx="15" fill="#111827" stroke="#334155"/>
  <text x="515" y="101" fill="#E5E7EB" font-family="JetBrains Mono, monospace" font-size="12" font-weight="600">Timeline</text>
  <rect x="610" y="82" width="104" height="30" rx="15" fill="#111827" stroke="#334155"/>
  <text x="635" y="101" fill="#E5E7EB" font-family="JetBrains Mono, monospace" font-size="12" font-weight="600">Handoff</text>
  <rect x="726" y="82" width="98" height="30" rx="15" fill="#111827" stroke="#334155"/>
  <text x="751" y="101" fill="#E5E7EB" font-family="JetBrains Mono, monospace" font-size="12" font-weight="600">Connect</text>

  <rect x="1284" y="82" width="112" height="30" rx="15" fill="#052E16" stroke="#10B981"/>
  <text x="1320" y="101" fill="#A7F3D0" font-family="JetBrains Mono, monospace" font-size="12" font-weight="700">Synced</text>
  <rect x="1408" y="82" width="84" height="30" rx="15" fill="#111827" stroke="#334155"/>
  <text x="1429" y="101" fill="#E5E7EB" font-family="JetBrains Mono, monospace" font-size="12" font-weight="600">3 watchers</text>

  <text x="120" y="192" fill="#93C5FD" font-family="JetBrains Mono, monospace" font-size="12" font-weight="700" letter-spacing="1.2">RELAY LIVE FEED</text>
  <text x="120" y="236" fill="#F8FAFC" font-family="JetBrains Mono, monospace" font-size="36" font-weight="800">Operator Command Center</text>
  <text x="120" y="272" fill="#94A3B8" font-family="JetBrains Mono, monospace" font-size="15" font-weight="500">
    Watch a running agent, inspect screenshots and reasoning, and send redirects without losing the current session.
  </text>

  <rect x="120" y="314" width="276" height="538" rx="24" fill="#0B1020" stroke="#1F2937"/>
  <text x="146" y="350" fill="#64748B" font-family="JetBrains Mono, monospace" font-size="12" font-weight="700" letter-spacing="1.1">SESSIONS</text>

  <rect x="146" y="376" width="224" height="104" rx="18" fill="#082F49" stroke="#3B82F6"/>
  <text x="168" y="408" fill="#DBEAFE" font-family="JetBrains Mono, monospace" font-size="13" font-weight="700">Support Triage Agent</text>
  <text x="168" y="434" fill="#BFDBFE" font-family="JetBrains Mono, monospace" font-size="12">running  user: demo_user</text>
  <text x="168" y="460" fill="#93C5FD" font-family="JetBrains Mono, monospace" font-size="12">task: verify refund on ticket #4821</text>

  <rect x="146" y="496" width="224" height="94" rx="18" fill="#0F172A" stroke="#273449"/>
  <text x="168" y="526" fill="#E5E7EB" font-family="JetBrains Mono, monospace" font-size="13" font-weight="700">Checkout Watcher</text>
  <text x="168" y="552" fill="#94A3B8" font-family="JetBrains Mono, monospace" font-size="12">paused  last activity: 18s ago</text>
  <text x="168" y="574" fill="#64748B" font-family="JetBrains Mono, monospace" font-size="12">handoff ready</text>

  <rect x="146" y="606" width="224" height="94" rx="18" fill="#0F172A" stroke="#273449"/>
  <text x="168" y="636" fill="#E5E7EB" font-family="JetBrains Mono, monospace" font-size="13" font-weight="700">Research Runner</text>
  <text x="168" y="662" fill="#94A3B8" font-family="JetBrains Mono, monospace" font-size="12">completed  43 actions</text>
  <text x="168" y="684" fill="#64748B" font-family="JetBrains Mono, monospace" font-size="12">timeline available</text>

  <rect x="146" y="726" width="224" height="100" rx="18" fill="#0B1020" stroke="#1E293B"/>
  <text x="168" y="758" fill="#64748B" font-family="JetBrains Mono, monospace" font-size="12" font-weight="700" letter-spacing="1.1">CONTROL LOOP</text>
  <text x="168" y="785" fill="#E2E8F0" font-family="JetBrains Mono, monospace" font-size="12">pause, resume, redirect, stop</text>
  <text x="168" y="809" fill="#94A3B8" font-family="JetBrains Mono, monospace" font-size="12">executed state mirrored back into the UI</text>

  <rect x="424" y="314" width="560" height="538" rx="24" fill="#0B1020" stroke="#1F2937"/>
  <text x="452" y="350" fill="#64748B" font-family="JetBrains Mono, monospace" font-size="12" font-weight="700" letter-spacing="1.1">ACTION STREAM</text>

  <rect x="452" y="376" width="92" height="34" rx="17" fill="#052E16" stroke="#10B981"/>
  <text x="480" y="397" fill="#A7F3D0" font-family="JetBrains Mono, monospace" font-size="12" font-weight="700">Resume</text>
  <rect x="558" y="376" width="88" height="34" rx="17" fill="#1E293B" stroke="#334155"/>
  <text x="589" y="397" fill="#E5E7EB" font-family="JetBrains Mono, monospace" font-size="12" font-weight="700">Pause</text>
  <rect x="660" y="376" width="98" height="34" rx="17" fill="#1E293B" stroke="#334155"/>
  <text x="686" y="397" fill="#E5E7EB" font-family="JetBrains Mono, monospace" font-size="12" font-weight="700">Redirect</text>
  <rect x="772" y="376" width="80" height="34" rx="17" fill="#3F1D1D" stroke="#EF4444"/>
  <text x="801" y="397" fill="#FECACA" font-family="JetBrains Mono, monospace" font-size="12" font-weight="700">Stop</text>

  <rect x="452" y="430" width="504" height="88" rx="18" fill="#0F172A" stroke="#1E293B"/>
  <rect x="470" y="448" width="72" height="24" rx="12" fill="#082F49" stroke="#3B82F6"/>
  <text x="489" y="464" fill="#DBEAFE" font-family="JetBrains Mono, monospace" font-size="11" font-weight="700">navigate</text>
  <text x="562" y="462" fill="#F8FAFC" font-family="JetBrains Mono, monospace" font-size="14" font-weight="700">Opened refund ticket details</text>
  <text x="562" y="488" fill="#94A3B8" font-family="JetBrains Mono, monospace" font-size="12">Read the latest customer message, order metadata, and resolution history.</text>
  <text x="470" y="502" fill="#64748B" font-family="JetBrains Mono, monospace" font-size="11">#18  14:32:09</text>

  <rect x="452" y="534" width="504" height="88" rx="18" fill="#0F172A" stroke="#1E293B"/>
  <rect x="470" y="552" width="56" height="24" rx="12" fill="#102A43" stroke="#38BDF8"/>
  <text x="488" y="568" fill="#E0F2FE" font-family="JetBrains Mono, monospace" font-size="11" font-weight="700">read</text>
  <text x="544" y="566" fill="#F8FAFC" font-family="JetBrains Mono, monospace" font-size="14" font-weight="700">Observed payment mismatch in gateway panel</text>
  <text x="544" y="592" fill="#94A3B8" font-family="JetBrains Mono, monospace" font-size="12">Relay attached a screenshot and reasoning snapshot to the same action row.</text>
  <text x="470" y="606" fill="#64748B" font-family="JetBrains Mono, monospace" font-size="11">#19  14:32:13</text>

  <rect x="452" y="638" width="504" height="88" rx="18" fill="#0F172A" stroke="#1E293B"/>
  <rect x="470" y="656" width="74" height="24" rx="12" fill="#1F2937" stroke="#64748B"/>
  <text x="492" y="672" fill="#E5E7EB" font-family="JetBrains Mono, monospace" font-size="11" font-weight="700">decide</text>
  <text x="560" y="670" fill="#F8FAFC" font-family="JetBrains Mono, monospace" font-size="14" font-weight="700">Preparing operator-facing refund summary</text>
  <text x="560" y="696" fill="#94A3B8" font-family="JetBrains Mono, monospace" font-size="12">Reasoning remains visible so the next operator can replay the decision path.</text>
  <text x="470" y="710" fill="#64748B" font-family="JetBrains Mono, monospace" font-size="11">#20  14:32:16</text>

  <rect x="452" y="742" width="504" height="88" rx="18" fill="#052E16" fill-opacity="0.32" stroke="#10B981"/>
  <rect x="470" y="760" width="84" height="24" rx="12" fill="#052E16" stroke="#10B981"/>
  <text x="492" y="776" fill="#A7F3D0" font-family="JetBrains Mono, monospace" font-size="11" font-weight="700">redirect</text>
  <text x="572" y="774" fill="#F8FAFC" font-family="JetBrains Mono, monospace" font-size="14" font-weight="700">Operator changed goal to refund verification only</text>
  <text x="572" y="800" fill="#A7F3D0" font-family="JetBrains Mono, monospace" font-size="12">Control command was received, executed, and acknowledged in the same session feed.</text>
  <text x="470" y="814" fill="#6EE7B7" font-family="JetBrains Mono, monospace" font-size="11">#21  14:32:19</text>

  <rect x="1012" y="314" width="444" height="538" rx="24" fill="#0B1020" stroke="#1F2937"/>
  <text x="1040" y="350" fill="#64748B" font-family="JetBrains Mono, monospace" font-size="12" font-weight="700" letter-spacing="1.1">SCREENSHOT + REASONING</text>

  <rect x="1040" y="376" width="388" height="212" rx="24" fill="url(#shot)" stroke="#334155"/>
  <rect x="1062" y="398" width="344" height="28" rx="14" fill="#111827" stroke="#334155"/>
  <circle cx="1082" cy="412" r="5" fill="#10B981"/>
  <circle cx="1100" cy="412" r="5" fill="#38BDF8"/>
  <circle cx="1118" cy="412" r="5" fill="#F59E0B"/>
  <rect x="1080" y="448" width="308" height="24" rx="12" fill="#082F49"/>
  <text x="1098" y="464" fill="#BAE6FD" font-family="JetBrains Mono, monospace" font-size="12" font-weight="700">billing.example.com / refund-review</text>
  <rect x="1080" y="494" width="148" height="70" rx="18" fill="#111827" stroke="#334155"/>
  <rect x="1242" y="494" width="146" height="70" rx="18" fill="#111827" stroke="#334155"/>
  <text x="1100" y="530" fill="#E5E7EB" font-family="JetBrains Mono, monospace" font-size="12">order total</text>
  <text x="1112" y="550" fill="#38BDF8" font-family="JetBrains Mono, monospace" font-size="18" font-weight="800">$128.00</text>
  <text x="1260" y="530" fill="#E5E7EB" font-family="JetBrains Mono, monospace" font-size="12">refund due</text>
  <text x="1270" y="550" fill="#34D399" font-family="JetBrains Mono, monospace" font-size="18" font-weight="800">$128.00</text>

  <rect x="1040" y="614" width="388" height="114" rx="20" fill="#0F172A" stroke="#1E293B"/>
  <text x="1062" y="644" fill="#93C5FD" font-family="JetBrains Mono, monospace" font-size="12" font-weight="700">Reasoning</text>
  <text x="1062" y="676" fill="#E2E8F0" font-family="JetBrains Mono, monospace" font-size="13">
    The agent matched the refund request against payment history,
  </text>
  <text x="1062" y="700" fill="#E2E8F0" font-family="JetBrains Mono, monospace" font-size="13">
    verified the missing reversal, and paused before submitting.
  </text>

  <rect x="1040" y="754" width="186" height="76" rx="18" fill="#0F172A" stroke="#1E293B"/>
  <text x="1062" y="786" fill="#64748B" font-family="JetBrains Mono, monospace" font-size="12" font-weight="700">DRIFT CHECK</text>
  <text x="1062" y="812" fill="#A7F3D0" font-family="JetBrains Mono, monospace" font-size="12">score 0.14  within task</text>

  <rect x="1242" y="754" width="186" height="76" rx="18" fill="#0F172A" stroke="#1E293B"/>
  <text x="1264" y="786" fill="#64748B" font-family="JetBrains Mono, monospace" font-size="12" font-weight="700">WATCHERS</text>
  <circle cx="1284" cy="812" r="12" fill="#2563EB"/>
  <circle cx="1314" cy="812" r="12" fill="#059669"/>
  <circle cx="1344" cy="812" r="12" fill="#EA580C"/>
  <text x="1368" y="816" fill="#E5E7EB" font-family="JetBrains Mono, monospace" font-size="12">ops, qa, lead</text>
</svg>
